<mxfile host="app.diagrams.net" modified="2020-12-04T04:58:19.659Z" agent="5.0 (Macintosh; Intel Mac OS X 10_13_6) AppleWebKit/537.36 (KHTML, like Gecko) Chrome/86.0.4240.198 Safari/537.36" etag="Q183ddEaFq9NQmEQFQqr" version="13.10.8" type="github">
  <diagram id="Pqj1JOqd4UoYtneGenPp" name="Page-1">
    <mxGraphModel dx="946" dy="623" grid="1" gridSize="10" guides="1" tooltips="1" connect="1" arrows="1" fold="1" page="1" pageScale="1" pageWidth="850" pageHeight="1100" math="0" shadow="0">
      <root>
        <mxCell id="0" />
        <mxCell id="1" parent="0" />
        <mxCell id="J-y_XdLzZgGSLSNDV4qj-3" value="" style="edgeStyle=orthogonalEdgeStyle;rounded=0;orthogonalLoop=1;jettySize=auto;html=1;" edge="1" parent="1" source="J-y_XdLzZgGSLSNDV4qj-1" target="J-y_XdLzZgGSLSNDV4qj-2">
          <mxGeometry relative="1" as="geometry" />
        </mxCell>
        <mxCell id="J-y_XdLzZgGSLSNDV4qj-5" value="" style="edgeStyle=orthogonalEdgeStyle;rounded=0;orthogonalLoop=1;jettySize=auto;html=1;" edge="1" parent="1" source="J-y_XdLzZgGSLSNDV4qj-1" target="J-y_XdLzZgGSLSNDV4qj-4">
          <mxGeometry relative="1" as="geometry" />
        </mxCell>
        <mxCell id="J-y_XdLzZgGSLSNDV4qj-7" value="" style="edgeStyle=orthogonalEdgeStyle;rounded=0;orthogonalLoop=1;jettySize=auto;html=1;" edge="1" parent="1" source="J-y_XdLzZgGSLSNDV4qj-1" target="J-y_XdLzZgGSLSNDV4qj-6">
          <mxGeometry relative="1" as="geometry" />
        </mxCell>
        <mxCell id="J-y_XdLzZgGSLSNDV4qj-9" value="" style="edgeStyle=orthogonalEdgeStyle;rounded=0;orthogonalLoop=1;jettySize=auto;html=1;" edge="1" parent="1" source="J-y_XdLzZgGSLSNDV4qj-1" target="J-y_XdLzZgGSLSNDV4qj-8">
          <mxGeometry relative="1" as="geometry" />
        </mxCell>
        <mxCell id="J-y_XdLzZgGSLSNDV4qj-11" value="" style="edgeStyle=orthogonalEdgeStyle;rounded=0;orthogonalLoop=1;jettySize=auto;html=1;" edge="1" parent="1" source="J-y_XdLzZgGSLSNDV4qj-1" target="J-y_XdLzZgGSLSNDV4qj-10">
          <mxGeometry relative="1" as="geometry" />
        </mxCell>
        <mxCell id="J-y_XdLzZgGSLSNDV4qj-1" value="Drone APP" style="shape=cube;whiteSpace=wrap;html=1;boundedLbl=1;backgroundOutline=1;darkOpacity=0.05;darkOpacity2=0.1;" vertex="1" parent="1">
          <mxGeometry x="350" y="20" width="120" height="80" as="geometry" />
        </mxCell>
        <mxCell id="J-y_XdLzZgGSLSNDV4qj-2" value="Home Page" style="shape=note;whiteSpace=wrap;html=1;backgroundOutline=1;darkOpacity=0.05;" vertex="1" parent="1">
          <mxGeometry x="10" y="150" width="80" height="100" as="geometry" />
        </mxCell>
        <mxCell id="J-y_XdLzZgGSLSNDV4qj-4" value="Book Flight Page" style="shape=note;whiteSpace=wrap;html=1;backgroundOutline=1;darkOpacity=0.05;" vertex="1" parent="1">
          <mxGeometry x="200" y="150" width="80" height="100" as="geometry" />
        </mxCell>
        <mxCell id="J-y_XdLzZgGSLSNDV4qj-6" value="Portfolio" style="shape=note;whiteSpace=wrap;html=1;backgroundOutline=1;darkOpacity=0.05;" vertex="1" parent="1">
          <mxGeometry x="370" y="150" width="80" height="100" as="geometry" />
        </mxCell>
        <mxCell id="J-y_XdLzZgGSLSNDV4qj-8" value="Join Comminuty" style="shape=note;whiteSpace=wrap;html=1;backgroundOutline=1;darkOpacity=0.05;" vertex="1" parent="1">
          <mxGeometry x="760" y="150" width="80" height="100" as="geometry" />
        </mxCell>
        <mxCell id="J-y_XdLzZgGSLSNDV4qj-10" value="" style="shape=note;whiteSpace=wrap;html=1;backgroundOutline=1;darkOpacity=0.05;" vertex="1" parent="1">
          <mxGeometry x="570" y="150" width="80" height="100" as="geometry" />
        </mxCell>
      </root>
    </mxGraphModel>
  </diagram>
</mxfile>
